<svg xmlns="http://www.w3.org/2000/svg" width="487" height="491" fill="none" viewBox="0 0 487 491">
    <ellipse cx="243.5" cy="245.5" fill="#F7F7F7" rx="243.5" ry="245.5"/>
    <path stroke="#E6B6C2" stroke-dasharray="10 10" stroke-linecap="round" stroke-linejoin="round" d="M30 360h428"/>
    <path fill="#E0E0E0" d="M289.804 200.116c-7.203-2.689-12.955-8.952-15.987-15.914-1.413-3.252-2.217-6.735-2.373-10.277-.259-3.337.307-6.686 1.646-9.753 2.504-5.074 8.158-7.173 13.55-6.698 2.739.228 5.389 1.08 7.748 2.491 2.442 1.478 4.361 3.684 5.486 6.307.753 1.431 1.07 3.051.913 4.66-.118.618-.465 1.169-.971 1.543-.506.374-1.134.543-1.759.474-1.603-.209-3.089-.95-4.22-2.103-1.414-1.252-2.569-2.768-3.401-4.464-1.799-3.567-2.882-7.452-3.186-11.436-.086-3.38.641-6.732 2.122-9.772 1.324-3.229 3.537-6.017 6.381-8.039 3.153-1.823 6.814-2.569 10.428-2.126 3.633.281 7.151 1.395 10.284 3.256 1.385.772 2.596 1.822 3.556 3.085.671.964 1.348 2.462.731 3.658-.618 1.196-2.598 1.36-3.823.92-1.789-.755-3.297-2.052-4.311-3.709-1.149-1.756-2.033-3.672-2.623-5.686-.448-1.453-.511-2.997-.184-4.481 1.473-6.168 9.193-8.688 14.804-8.656 1.514.011 3.019.235 4.471.663.498.108.017.864-.377.747-2.859-.758-5.868-.733-8.714.073-2.767.61-5.289 2.033-7.242 4.087-.894 1.027-1.497 2.275-1.745 3.615-.247 1.339-.131 2.72.338 3.999.595 1.875 1.456 3.654 2.557 5.283.934 1.308 2.437 2.914 4.095 3.151.269.058.55.038.809-.055.259-.094.487-.259.657-.476.119-.311.163-.644.13-.975-.033-.33-.143-.649-.321-.929-.661-1.117-1.573-2.064-2.663-2.768-2.667-1.855-5.728-3.067-8.943-3.538-3.277-.65-6.673-.319-9.764.95-2.764 1.436-5 3.713-6.385 6.503-1.594 2.794-2.574 5.895-2.876 9.097-.101 3.266.456 6.519 1.638 9.565 1.159 3.383 2.802 6.749 5.948 8.66.775.485 2.439 1.307 3.036.157.597-1.149-.033-2.862-.443-3.944-.897-2.438-2.518-4.543-4.646-6.033-2.063-1.396-4.422-2.293-6.891-2.621-4.677-.658-9.87.732-12.465 4.958-1.398 2.558-2.114 5.433-2.079 8.349-.086 3.168.374 6.328 1.359 9.341 2.134 6.41 6.268 11.966 11.795 15.853 1.31.94 2.681 1.79 4.09 2.607.143.093-.01.469-.18.401z"/>
    <path fill="#E6B6BC" d="M339.292 122.019c3.97.565 8.686 4.812 6.283 6.644-2.403 1.832-6.696-2.907-6.696-2.907s-.508 4.648-2.281 4.805c-1.774.158-3.08-4.669-.816-7.084-.87.142-1.761.062-2.592-.233-.83-.295-1.573-.795-2.158-1.453-1.987-2.253.871-3.352 4.139-2.335 0 0-.687-8.336 3.807-5.794 2.254 1.257 2.491 4.265.314 8.357z"/>
    <path fill="#BA4350" d="M335.296 122.891c.262-.165.534-.315.813-.448.399-.19.816-.365 1.213-.545.386-.17.783-.313 1.188-.428.234-.07.472-.128.713-.172.336-.077.686-.058 1.011.055.087.022.167.066.231.129s.11.142.133.228c.023.087.022.178-.002.264-.025.087-.072.165-.136.227-.332.232-.716.381-1.118.432l-.589.169c-.408.137-.784.311-1.13.492-.346.18-.788.33-1.134.511-.593.299-1.228.506-1.883.614-.031.009-.062.01-.093.003s-.059-.021-.083-.041c-.414-.499.521-1.268.866-1.49z"/>
    <ellipse cx="172" cy="341.5" fill="#E6B6BC" rx="16" ry="15.5"/>
    <circle cx="322.5" cy="341.5" r="15.5" fill="#E6B6BC"/>
    <path fill="#E6B6BC" d="M159.439 197.365c-.229-1.23.715-2.365 1.966-2.365H338.71c1.211 0 2.145 1.069 1.981 2.27l-15.096 111c-.135.991-.982 1.73-1.982 1.73H181.991c-.964 0-1.79-.688-1.966-1.635l-20.586-111z"/>
    <path stroke="#BA4350" stroke-linecap="round" stroke-linejoin="round" stroke-width="1.5" d="M122 186h22.811l24.236 133h134.014M173.324 207.452h148.161m5.593 38.613L333 207.452h-11.515m5.593 38.613H186.155m140.923 0l-5.593 36.467m0 0L315.892 319h-12.831m18.424-36.468H197.561m123.924-75.08L303.061 319M183.25 343c0 8.996-7.072 16.25-15.75 16.25s-15.75-7.254-15.75-16.25 7.072-16.25 15.75-16.25 15.75 7.254 15.75 16.25zM335.25 343c0 8.954-7.479 16.25-16.75 16.25s-16.75-7.296-16.75-16.25 7.479-16.25 16.75-16.25 16.75 7.296 16.75 16.25z"/>
    <circle cx="402" cy="280" r="5" stroke="#BA4350" stroke-linecap="round" stroke-linejoin="round" stroke-width="1.5"/>
    <circle cx="80" cy="203" r="8" stroke="#BA4350" stroke-linecap="round" stroke-linejoin="round" stroke-width="1.5"/>
    <circle cx="91" cy="186" r="3" fill="#BA4350"/>
    <circle cx="91" cy="186" r="3" fill="#E6B6BC"/>
    <circle cx="174.5" cy="137.5" r="4.5" fill="#BA4350"/>
    <path stroke="#BA4350" stroke-linejoin="round" stroke-width="1.5" d="M425.844 263.065L418.066 270.844M418.066 262.712L425.844 270.49"/>
</svg>
